<svg width="600" height="600" viewBox="0 0 600 600" fill="none" xmlns="http://www.w3.org/2000/svg">
<g clip-path="url(#clip0_121_2737)">
<circle cx="300" cy="300" r="300" fill="#FAE62D"/>
<g clip-path="url(#clip1_121_2737)">
<path d="M357.168 170.859V201.219C336.851 177.246 307.441 165 276.971 165C212.279 165 154 218.785 154 300.269C154 381.753 217.621 435 276.971 435C304.24 435 335.781 424.349 357.168 398.791V429.151H424V170.859H357.168ZM287.665 373.224C248.101 373.224 218.692 340.742 218.692 299.731C218.692 258.72 247.561 226.776 287.665 226.776C327.768 226.776 357.168 259.796 357.168 299.731C357.168 339.666 328.828 373.224 287.665 373.224Z" fill="#1E1E1E"/>
</g>
</g>
<defs>
<clipPath id="clip0_121_2737">
<rect width="600" height="600" fill="white"/>
</clipPath>
<clipPath id="clip1_121_2737">
<rect width="270" height="270" fill="white" transform="translate(154 165)"/>
</clipPath>
</defs>
</svg>
